<mxfile host="app.diagrams.net" modified="2023-10-18T21:57:34.207Z" agent="Mozilla/5.0 (Windows NT 10.0; Win64; x64) AppleWebKit/537.36 (KHTML, like Gecko) Chrome/118.0.0.0 Safari/537.36" etag="uU9diu3G1HFUfxEWLzk6" version="22.0.4" type="device">
  <diagram name="Page-1" id="74b105a0-9070-1c63-61bc-23e55f88626e">
    <mxGraphModel dx="3447" dy="1567" grid="1" gridSize="10" guides="1" tooltips="1" connect="1" arrows="1" fold="1" page="1" pageScale="1.5" pageWidth="1169" pageHeight="826" background="none" math="0" shadow="0">
      <root>
        <mxCell id="0" style=";html=1;" />
        <mxCell id="1" style=";html=1;" parent="0" />
        <mxCell id="x6OoS2rPGkejVevYecvU-1" value="&lt;font style=&quot;font-size: 36px;&quot;&gt;User&lt;/font&gt;" style="shape=umlActor;verticalLabelPosition=bottom;verticalAlign=top;html=1;outlineConnect=0;" vertex="1" parent="1">
          <mxGeometry x="390" y="450" width="150" height="210" as="geometry" />
        </mxCell>
        <mxCell id="x6OoS2rPGkejVevYecvU-2" value="" style="endArrow=classic;startArrow=classic;html=1;rounded=0;" edge="1" parent="1">
          <mxGeometry width="50" height="50" relative="1" as="geometry">
            <mxPoint x="550" y="590" as="sourcePoint" />
            <mxPoint x="740" y="590" as="targetPoint" />
          </mxGeometry>
        </mxCell>
        <mxCell id="x6OoS2rPGkejVevYecvU-7" value="" style="endArrow=classic;startArrow=classic;html=1;rounded=0;" edge="1" parent="1">
          <mxGeometry width="50" height="50" relative="1" as="geometry">
            <mxPoint x="1000" y="600" as="sourcePoint" />
            <mxPoint x="1240" y="600" as="targetPoint" />
          </mxGeometry>
        </mxCell>
        <mxCell id="x6OoS2rPGkejVevYecvU-9" value="" style="ellipse;whiteSpace=wrap;html=1;aspect=fixed;" vertex="1" parent="1">
          <mxGeometry x="1260" y="450" width="310" height="310" as="geometry" />
        </mxCell>
        <mxCell id="x6OoS2rPGkejVevYecvU-12" value="&lt;font style=&quot;font-size: 36px;&quot;&gt;Controller&lt;/font&gt;" style="text;html=1;strokeColor=none;fillColor=none;align=center;verticalAlign=middle;whiteSpace=wrap;rounded=0;" vertex="1" parent="1">
          <mxGeometry x="1385" y="585" width="60" height="30" as="geometry" />
        </mxCell>
        <mxCell id="x6OoS2rPGkejVevYecvU-13" value="" style="endArrow=classic;startArrow=classic;html=1;rounded=0;" edge="1" parent="1">
          <mxGeometry width="50" height="50" relative="1" as="geometry">
            <mxPoint x="1610" y="599" as="sourcePoint" />
            <mxPoint x="1810" y="599" as="targetPoint" />
          </mxGeometry>
        </mxCell>
        <mxCell id="x6OoS2rPGkejVevYecvU-14" value="" style="shape=cube;whiteSpace=wrap;html=1;boundedLbl=1;backgroundOutline=1;darkOpacity=0.05;darkOpacity2=0.1;" vertex="1" parent="1">
          <mxGeometry x="1840" y="500" width="330" height="210" as="geometry" />
        </mxCell>
        <mxCell id="x6OoS2rPGkejVevYecvU-15" value="&lt;font style=&quot;font-size: 36px;&quot;&gt;Model&lt;/font&gt;" style="text;html=1;strokeColor=none;fillColor=none;align=center;verticalAlign=middle;whiteSpace=wrap;rounded=0;" vertex="1" parent="1">
          <mxGeometry x="1990" y="590" width="60" height="30" as="geometry" />
        </mxCell>
        <mxCell id="x6OoS2rPGkejVevYecvU-17" value="" style="endArrow=classic;startArrow=classic;html=1;rounded=0;" edge="1" parent="1">
          <mxGeometry width="50" height="50" relative="1" as="geometry">
            <mxPoint x="2170" y="610" as="sourcePoint" />
            <mxPoint x="2430" y="480" as="targetPoint" />
          </mxGeometry>
        </mxCell>
        <mxCell id="x6OoS2rPGkejVevYecvU-18" value="" style="endArrow=classic;startArrow=classic;html=1;rounded=0;" edge="1" parent="1">
          <mxGeometry width="50" height="50" relative="1" as="geometry">
            <mxPoint x="2180" y="620" as="sourcePoint" />
            <mxPoint x="2430" y="680" as="targetPoint" />
          </mxGeometry>
        </mxCell>
        <mxCell id="x6OoS2rPGkejVevYecvU-20" value="" style="shape=hexagon;perimeter=hexagonPerimeter2;whiteSpace=wrap;html=1;fixedSize=1;" vertex="1" parent="1">
          <mxGeometry x="2480" y="415" width="240" height="165" as="geometry" />
        </mxCell>
        <mxCell id="x6OoS2rPGkejVevYecvU-21" value="" style="shape=hexagon;perimeter=hexagonPerimeter2;whiteSpace=wrap;html=1;fixedSize=1;" vertex="1" parent="1">
          <mxGeometry x="2480" y="650" width="240" height="165" as="geometry" />
        </mxCell>
        <mxCell id="x6OoS2rPGkejVevYecvU-22" value="&lt;font style=&quot;font-size: 36px;&quot;&gt;User Database&lt;/font&gt;" style="text;html=1;strokeColor=none;fillColor=none;align=center;verticalAlign=middle;whiteSpace=wrap;rounded=0;" vertex="1" parent="1">
          <mxGeometry x="2570" y="482.5" width="60" height="30" as="geometry" />
        </mxCell>
        <mxCell id="x6OoS2rPGkejVevYecvU-23" value="&lt;font style=&quot;font-size: 36px;&quot;&gt;Financial Info Database&lt;/font&gt;" style="text;html=1;strokeColor=none;fillColor=none;align=center;verticalAlign=middle;whiteSpace=wrap;rounded=0;" vertex="1" parent="1">
          <mxGeometry x="2570" y="717.5" width="60" height="30" as="geometry" />
        </mxCell>
        <mxCell id="x6OoS2rPGkejVevYecvU-24" value="" style="whiteSpace=wrap;html=1;aspect=fixed;" vertex="1" parent="1">
          <mxGeometry x="763.75" y="488.75" width="222.5" height="222.5" as="geometry" />
        </mxCell>
        <mxCell id="x6OoS2rPGkejVevYecvU-25" value="&lt;font style=&quot;font-size: 36px;&quot;&gt;View&lt;/font&gt;" style="text;html=1;strokeColor=none;fillColor=none;align=center;verticalAlign=middle;whiteSpace=wrap;rounded=0;" vertex="1" parent="1">
          <mxGeometry x="840" y="590" width="60" height="30" as="geometry" />
        </mxCell>
        <mxCell id="x6OoS2rPGkejVevYecvU-26" value="&lt;font style=&quot;font-size: 36px;&quot;&gt;Presents Financial Data&lt;/font&gt;" style="text;html=1;strokeColor=none;fillColor=none;align=center;verticalAlign=middle;whiteSpace=wrap;rounded=0;" vertex="1" parent="1">
          <mxGeometry x="580" y="482.5" width="150" height="30" as="geometry" />
        </mxCell>
        <mxCell id="x6OoS2rPGkejVevYecvU-27" value="&lt;font style=&quot;font-size: 36px;&quot;&gt;User Selects Operation&lt;/font&gt;" style="text;html=1;strokeColor=none;fillColor=none;align=center;verticalAlign=middle;whiteSpace=wrap;rounded=0;" vertex="1" parent="1">
          <mxGeometry x="625" y="650" width="60" height="30" as="geometry" />
        </mxCell>
        <mxCell id="x6OoS2rPGkejVevYecvU-28" value="&lt;div style=&quot;text-align: center;&quot;&gt;&lt;span style=&quot;background-color: initial; font-size: 36px;&quot;&gt;Perform Operations on Data&lt;/span&gt;&lt;/div&gt;" style="text;whiteSpace=wrap;html=1;" vertex="1" parent="1">
          <mxGeometry x="1580" y="460" width="245" height="125" as="geometry" />
        </mxCell>
        <mxCell id="x6OoS2rPGkejVevYecvU-29" style="edgeStyle=orthogonalEdgeStyle;rounded=0;orthogonalLoop=1;jettySize=auto;html=1;exitX=0.5;exitY=1;exitDx=0;exitDy=0;" edge="1" parent="1" source="x6OoS2rPGkejVevYecvU-12" target="x6OoS2rPGkejVevYecvU-12">
          <mxGeometry relative="1" as="geometry" />
        </mxCell>
        <mxCell id="x6OoS2rPGkejVevYecvU-32" value="&lt;div style=&quot;text-align: center;&quot;&gt;&lt;span style=&quot;background-color: initial; font-size: 36px;&quot;&gt;Send New Financial Data&lt;/span&gt;&lt;/div&gt;" style="text;whiteSpace=wrap;html=1;" vertex="1" parent="1">
          <mxGeometry x="1580" y="615" width="245" height="125" as="geometry" />
        </mxCell>
        <mxCell id="x6OoS2rPGkejVevYecvU-33" value="&lt;div style=&quot;text-align: center;&quot;&gt;&lt;span style=&quot;background-color: initial; font-size: 36px;&quot;&gt;Send Info&lt;/span&gt;&lt;/div&gt;" style="text;whiteSpace=wrap;html=1;" vertex="1" parent="1">
          <mxGeometry x="2260" y="557" width="245" height="125" as="geometry" />
        </mxCell>
        <mxCell id="x6OoS2rPGkejVevYecvU-34" value="&lt;div style=&quot;text-align: center;&quot;&gt;&lt;span style=&quot;background-color: initial; font-size: 36px;&quot;&gt;Get Info&lt;/span&gt;&lt;/div&gt;" style="text;whiteSpace=wrap;html=1;" vertex="1" parent="1">
          <mxGeometry x="2190" y="470" width="245" height="125" as="geometry" />
        </mxCell>
        <mxCell id="x6OoS2rPGkejVevYecvU-35" value="&lt;div style=&quot;text-align: center;&quot;&gt;&lt;span style=&quot;background-color: initial; font-size: 36px;&quot;&gt;Get Info&lt;/span&gt;&lt;/div&gt;" style="text;whiteSpace=wrap;html=1;" vertex="1" parent="1">
          <mxGeometry x="2290" y="602.5" width="245" height="125" as="geometry" />
        </mxCell>
        <mxCell id="x6OoS2rPGkejVevYecvU-36" value="&lt;div style=&quot;text-align: center;&quot;&gt;&lt;span style=&quot;background-color: initial; font-size: 36px;&quot;&gt;Send Info&lt;/span&gt;&lt;/div&gt;" style="text;whiteSpace=wrap;html=1;" vertex="1" parent="1">
          <mxGeometry x="2240" y="660" width="245" height="125" as="geometry" />
        </mxCell>
        <mxCell id="x6OoS2rPGkejVevYecvU-37" value="&lt;div style=&quot;text-align: center;&quot;&gt;&lt;span style=&quot;font-size: 36px;&quot;&gt;Make Data Presentable to UI&lt;/span&gt;&lt;/div&gt;" style="text;whiteSpace=wrap;html=1;" vertex="1" parent="1">
          <mxGeometry x="1010" y="465" width="245" height="125" as="geometry" />
        </mxCell>
        <mxCell id="x6OoS2rPGkejVevYecvU-38" value="&lt;div style=&quot;text-align: center;&quot;&gt;&lt;span style=&quot;background-color: initial; font-size: 36px;&quot;&gt;Convert User Interaction to Commands&lt;/span&gt;&lt;/div&gt;" style="text;whiteSpace=wrap;html=1;" vertex="1" parent="1">
          <mxGeometry x="1010" y="615" width="245" height="125" as="geometry" />
        </mxCell>
      </root>
    </mxGraphModel>
  </diagram>
</mxfile>
